<?xml version="1.0" encoding="UTF-8" standalone="no"?><!DOCTYPE svg PUBLIC "-//W3C//DTD SVG 1.1//EN" "http://www.w3.org/Graphics/SVG/1.1/DTD/svg11.dtd"><svg width="100%" height="100%" viewBox="0 0 1921 500" version="1.1" xmlns="http://www.w3.org/2000/svg" xmlns:xlink="http://www.w3.org/1999/xlink" xml:space="preserve" xmlns:serif="http://www.serif.com/" style="fill-rule:evenodd;clip-rule:evenodd;stroke-linecap:round;stroke-linejoin:round;stroke-miterlimit:1.5;"><rect id="Artboard1" x="0.211" y="0" width="1920" height="500" style="fill:#191919;"/><g id="Artboard11" serif:id="Artboard1"><path d="M438.087,141.506l16.524,-2.866l-7.622,14.939l-8.902,-12.073Z" style="fill:#c12b2b;"/><path d="M201.171,325.52c0,-0 214.951,-158.499 243.782,-179.758" style="fill:none;stroke:#c12b2b;stroke-width:5px;"/><path d="M1797.29,147.906l16.524,-2.866l-7.622,14.939l-8.902,-12.073Z" style="fill:#c12b2b;"/><path d="M1560.37,331.92c0,-0 197.428,-145.578 243.782,-179.758" style="fill:none;stroke:#c12b2b;stroke-width:5px;"/><path d="M1552.97,110.786l16.524,-2.866l-7.622,14.939l-8.902,-12.073Z" style="fill:#c12b2b;"/><path d="M1316.05,294.8c0,-0 197.428,-145.578 243.782,-179.758" style="fill:none;stroke:#c12b2b;stroke-width:5px;"/><path d="M1000.26,240.984l13.711,9.656l-15.952,5.176l2.241,-14.832Z" style="fill:#0060ff;"/><path d="M768.211,213.52c0,-0 184.785,27.91 233.895,35.328" style="fill:none;stroke:#0060ff;stroke-width:5px;"/><path d="M1546.82,326.744l13.711,9.656l-15.952,5.176l2.241,-14.832Z" style="fill:#0060ff;"/><path d="M1314.77,299.28c0,-0 184.785,27.91 233.895,35.328" style="fill:none;stroke:#0060ff;stroke-width:5px;"/><path d="M1798.98,134.744l13.711,9.656l-15.952,5.176l2.241,-14.832Z" style="fill:#0060ff;"/><path d="M1566.93,107.28c0,-0 184.785,27.91 233.895,35.328" style="fill:none;stroke:#0060ff;stroke-width:5px;"/><g transform="matrix(105.429,0,0,105.429,591.7,269.222)"></g><text x="530.131px" y="269.222px" style="font-family:'ArialMT', 'Arial', sans-serif;font-size:105.429px;fill:#fff;">+</text><g transform="matrix(105.429,0,0,105.429,1270.1,269.325)"></g><text x="1208.53px" y="269.325px" style="font-family:'ArialMT', 'Arial', sans-serif;font-size:105.429px;fill:#fff;">=</text><path d="M1794.72,143.518l16.535,2.802l-12.163,11.546l-4.372,-14.348Z" style="fill:#ffc900;"/><path d="M1319.73,296.08c0,0 406.101,-123.734 480.041,-146.262" style="fill:none;stroke:#ffc900;stroke-width:5px;"/></g></svg>