<?xml version="1.0" encoding="UTF-8" standalone="no"?><!DOCTYPE svg PUBLIC "-//W3C//DTD SVG 1.1//EN" "http://www.w3.org/Graphics/SVG/1.1/DTD/svg11.dtd"><svg width="100%" height="100%" viewBox="0 0 302 178" version="1.1" xmlns="http://www.w3.org/2000/svg" xmlns:xlink="http://www.w3.org/1999/xlink" xml:space="preserve" xmlns:serif="http://www.serif.com/" style="fill-rule:evenodd;clip-rule:evenodd;stroke-linecap:round;stroke-linejoin:round;stroke-miterlimit:1.5;"><rect x="-98.995" y="-83.184" width="400" height="400" style="fill:#191919;"/><rect id="Artboard1" x="-77" y="-75" width="400" height="400" style="fill:none;"/><g id="Artboard11" serif:id="Artboard1"><path d="M188.874,23.637l33.359,-3.496l-17.219,28.784l-16.14,-25.288Z" style="fill:#fff;"/><path d="M26.969,150.698c-2.326,1.485 -5.42,0.802 -6.905,-1.525c-1.485,-2.326 -0.801,-5.42 1.525,-6.904l177.723,-113.431c2.326,-1.485 5.42,-0.801 6.905,1.525c1.484,2.326 0.801,5.42 -1.525,6.904l-177.723,113.431Z" style="fill:#fff;"/><g transform="matrix(0.842943,-0.538003,0.538003,0.842943,-48.1899,-62.8609)"><text x="56.851px" y="207.954px" style="font-family:'ArialMT', 'Arial', sans-serif;font-size:25px;fill:#fff;">C</text></g><text x="103.678px" y="174.895px" style="font-family:'ArialMT', 'Arial', sans-serif;font-size:25px;fill:#fff;">B</text><path d="M22.233,153.645l179.539,-0" style="fill:none;stroke:#fff;stroke-width:2px;stroke-dasharray:2,4,0,0,0,0;"/><g transform="matrix(-1.01166e-16,1,-1,-3.70617e-17,368.748,-506.062)"><text x="597.917px" y="163.738px" style="font-family:'ArialMT', 'Arial', sans-serif;font-size:25px;fill:#fff;">A</text></g><path d="M201.261,153.133l-0,-105.882" style="fill:none;stroke:#fff;stroke-width:2px;stroke-dasharray:2,4,0,0,0,0;"/></g></svg>