<?xml version="1.0" encoding="UTF-8" standalone="no"?><!DOCTYPE svg PUBLIC "-//W3C//DTD SVG 1.1//EN" "http://www.w3.org/Graphics/SVG/1.1/DTD/svg11.dtd"><svg width="100%" height="100%" viewBox="0 0 1921 501" version="1.1" xmlns="http://www.w3.org/2000/svg" xmlns:xlink="http://www.w3.org/1999/xlink" xml:space="preserve" xmlns:serif="http://www.serif.com/" style="fill-rule:evenodd;clip-rule:evenodd;stroke-linecap:round;stroke-linejoin:round;stroke-miterlimit:1.5;"><rect id="Artboard2" x="0.976" y="0.59" width="1920" height="500" style="fill:#191919;"/><g id="Artboard21" serif:id="Artboard2"><path d="M265.944,171.511l-5.746,-15.756l16.052,4.857l-10.306,10.899Z" style="fill:#fff;"/><path d="M426.24,312.773c-0,-0 -123.122,-116.431 -157.323,-148.773" style="fill:none;stroke:#fff;stroke-width:5px;"/><g transform="matrix(-1,0.000264341,-0.000264341,-1,642.606,485.916)"><g transform="matrix(-0.726393,-0.68728,0.68728,-0.726393,338.989,669.823)"><text x="302.823px" y="267.435px" style="font-family:'Arial-BoldMT', 'Arial', sans-serif;font-weight:700;font-size:30px;fill:#fff;">-</text></g><g transform="matrix(-0.726393,-0.68728,0.68728,-0.726393,331.183,652.988)"><text x="295.569px" y="260.572px" style="font-family:'Arial-BoldMT', 'Arial', sans-serif;font-weight:700;font-size:30px;fill:#fff;">a</text></g></g><path d="M830.384,93.002l-5.746,-15.756l16.052,4.857l-10.306,10.899Z" style="fill:#fff;"/><path d="M1156.72,391.282c-0,-0 -270.951,-256.226 -323.365,-305.791" style="fill:none;stroke:#fff;stroke-width:5px;"/><g transform="matrix(-1,0.000264341,-0.000264341,-1,1373.09,564.424)"><g transform="matrix(-0.726393,-0.68728,0.68728,-0.726393,434.844,876.539)"><text x="391.898px" y="351.713px" style="font-family:'Arial-BoldMT', 'Arial', sans-serif;font-weight:700;font-size:30px;fill:#fff;">-</text></g><g transform="matrix(-0.726393,-0.68728,0.68728,-0.726393,427.015,859.656)"><text x="384.623px" y="344.83px" style="font-family:'Arial-BoldMT', 'Arial', sans-serif;font-weight:700;font-size:30px;fill:#fff;">2</text></g><g transform="matrix(-0.726393,-0.68728,0.68728,-0.726393,413.963,831.508)"><text x="372.494px" y="333.355px" style="font-family:'Arial-BoldMT', 'Arial', sans-serif;font-weight:700;font-size:30px;fill:#fff;">a</text></g></g><path d="M1560.87,211.73l-5.745,-15.755l16.052,4.857l-10.307,10.898Z" style="fill:#fff;"/><path d="M1637.12,273.518c-0,0 -52.164,-49.328 -73.281,-69.298" style="fill:none;stroke:#fff;stroke-width:5px;"/><g transform="matrix(-1,0.000264341,-0.000264341,-1,1853.49,446.661)"><g transform="matrix(-0.726393,-0.68728,0.68728,-0.726393,310.078,607.474)"><text x="275.957px" y="242.016px" style="font-family:'Arial-BoldMT', 'Arial', sans-serif;font-weight:700;font-size:30px;fill:#fff;">-</text></g><g transform="matrix(-0.726393,-0.68728,0.68728,-0.726393,302.268,590.633)"><text x="268.7px" y="235.15px" style="font-family:'Arial-BoldMT', 'Arial', sans-serif;font-weight:700;font-size:30px;fill:#fff;">0</text></g><g transform="matrix(-0.726393,-0.68728,0.68728,-0.726393,289.23,562.515)"><text x="256.584px" y="223.686px" style="font-family:'Arial-BoldMT', 'Arial', sans-serif;font-weight:700;font-size:30px;fill:#fff;">.</text></g><g transform="matrix(-0.726393,-0.68728,0.68728,-0.726393,282.706,548.446)"><text x="250.522px" y="217.95px" style="font-family:'Arial-BoldMT', 'Arial', sans-serif;font-weight:700;font-size:30px;fill:#fff;">5</text></g><g transform="matrix(-0.726393,-0.68728,0.68728,-0.726393,269.662,520.316)"><text x="238.4px" y="206.481px" style="font-family:'Arial-BoldMT', 'Arial', sans-serif;font-weight:700;font-size:30px;fill:#fff;">a</text></g></g></g></svg>