<?xml version="1.0" encoding="UTF-8" standalone="no"?><!DOCTYPE svg PUBLIC "-//W3C//DTD SVG 1.1//EN" "http://www.w3.org/Graphics/SVG/1.1/DTD/svg11.dtd"><svg width="100%" height="100%" viewBox="0 0 1920 500" version="1.1" xmlns="http://www.w3.org/2000/svg" xmlns:xlink="http://www.w3.org/1999/xlink" xml:space="preserve" xmlns:serif="http://www.serif.com/" style="fill-rule:evenodd;clip-rule:evenodd;stroke-linecap:round;stroke-linejoin:round;stroke-miterlimit:1.5;"><rect id="Artboard1" x="0" y="0" width="1920" height="500" style="fill:#191919;"/><g id="Artboard11" serif:id="Artboard1"><path d="M376.579,304.715l5.741,15.757l-16.05,-4.861l10.309,-10.896Z" style="fill:#fff;"/><path d="M216.32,163.411c0,-0 123.092,116.463 157.283,148.814" style="fill:none;stroke:#fff;stroke-width:5px;"/><g transform="matrix(0.726393,0.68728,-0.68728,0.726393,-35.0406,-210.5)"><text x="545.46px" y="91.051px" style="font-family:'Arial-BoldMT', 'Arial', sans-serif;font-weight:700;font-size:30px;fill:#fff;">a</text></g><path d="M1136.06,383.246l5.741,15.757l-16.05,-4.861l10.309,-10.896Z" style="fill:#fff;"/><path d="M809.8,84.88c-0,0 270.883,256.297 323.283,305.876" style="fill:none;stroke:#fff;stroke-width:5px;"/><g transform="matrix(1,0,0,1,593.48,-88.32)"><g transform="matrix(0.726393,0.68728,-0.68728,0.726393,317.604,-173.253)"><text x="376.401px" y="312.272px" style="font-family:'Arial-BoldMT', 'Arial', sans-serif;font-weight:700;font-size:30px;fill:#fff;">2</text></g><g transform="matrix(0.726393,0.68728,-0.68728,0.726393,328.784,-178.437)"><text x="388.502px" y="323.721px" style="font-family:'Arial-BoldMT', 'Arial', sans-serif;font-weight:700;font-size:30px;fill:#fff;">a</text></g></g><path d="M1645.54,264.504l5.741,15.757l-16.05,-4.861l10.309,-10.896Z" style="fill:#fff;"/><path d="M1569.28,202.676c-0,0 52.167,49.358 73.283,69.337" style="fill:none;stroke:#fff;stroke-width:5px;"/><g transform="matrix(1,0,0,1,1352.96,29.4762)"><g transform="matrix(0.726393,0.68728,-0.68728,0.726393,193.712,-115.804)"><text x="242.302px" y="185.393px" style="font-family:'Arial-BoldMT', 'Arial', sans-serif;font-weight:700;font-size:30px;fill:#fff;">0</text></g><g transform="matrix(0.726393,0.68728,-0.68728,0.726393,204.89,-120.987)"><text x="254.4px" y="196.84px" style="font-family:'Arial-BoldMT', 'Arial', sans-serif;font-weight:700;font-size:30px;fill:#fff;">.</text></g><g transform="matrix(0.726393,0.68728,-0.68728,0.726393,210.499,-123.588)"><text x="260.472px" y="202.584px" style="font-family:'Arial-BoldMT', 'Arial', sans-serif;font-weight:700;font-size:30px;fill:#fff;">5</text></g><g transform="matrix(0.726393,0.68728,-0.68728,0.726393,221.696,-128.781)"><text x="272.592px" y="214.052px" style="font-family:'Arial-BoldMT', 'Arial', sans-serif;font-weight:700;font-size:30px;fill:#fff;">a</text></g></g></g></svg>