<?xml version="1.0" encoding="UTF-8" standalone="no"?><!DOCTYPE svg PUBLIC "-//W3C//DTD SVG 1.1//EN" "http://www.w3.org/Graphics/SVG/1.1/DTD/svg11.dtd"><svg width="100%" height="100%" viewBox="0 0 1920 500" version="1.1" xmlns="http://www.w3.org/2000/svg" xmlns:xlink="http://www.w3.org/1999/xlink" xml:space="preserve" xmlns:serif="http://www.serif.com/" style="fill-rule:evenodd;clip-rule:evenodd;stroke-linecap:round;stroke-linejoin:round;stroke-miterlimit:1.5;"><rect id="Artboard1" x="0" y="0" width="1920" height="500" style="fill:#191919;"/><g id="Artboard11" serif:id="Artboard1"><path d="M360.12,217.06l15,7.5l-15,7.5l0,-15Z" style="fill:#c81515;"/><path d="M165.12,224.56l198,-0" style="fill:none;stroke:#c81515;stroke-width:5px;"/><g><path d="M1704.12,355.94l15,7.5l-15,7.5l-0,-15Z" style="fill:#c81515;"/><path d="M1509.12,363.44l198,-0" style="fill:none;stroke:#c81515;stroke-width:5px;"/><path d="M1711.54,99.72l7.5,-15l7.5,15l-15,-0Z" style="fill:#1548c8;"/><path d="M1719.04,364.72l0,-268" style="fill:none;stroke:#1548c8;stroke-width:5px;"/><path d="M1707.71,91.558l15.166,-7.158l-3.373,16.428l-11.793,-9.27Z" style="fill:#e1cd26;"/><path d="M1506.56,359.6c0,-0 170.927,-217.452 208.904,-265.766" style="fill:none;stroke:#e1cd26;stroke-width:5px;"/><g transform="matrix(0.617983,-0.786191,0.786191,0.617983,-889.309,851.389)"><text x="2033.9px" y="1570.69px" style="font-family:'Arial-BoldMT', 'Arial', sans-serif;font-weight:700;font-size:30px;fill:#fff;">a</text></g></g><path d="M937.14,99.56l7.5,-15l7.5,15l-15,-0Z" style="fill:#1548c8;"/><path d="M944.64,364.56l0,-268" style="fill:none;stroke:#1548c8;stroke-width:5px;"/><g transform="matrix(100,0,0,100,666.398,264.08)"></g><text x="608px" y="264.08px" style="font-family:'ArialMT', 'Arial', sans-serif;font-size:100px;fill:#fff;">+</text><g transform="matrix(100,0,0,100,1210.4,265.36)"></g><text x="1152px" y="265.36px" style="font-family:'ArialMT', 'Arial', sans-serif;font-size:100px;fill:#fff;">=</text></g></svg>